<svg width="91" height="43" viewBox="0 0 91 43" fill="none" xmlns="http://www.w3.org/2000/svg">
    <path fill-rule="evenodd" clip-rule="evenodd" d="m9.911 21.369.13-.2.004.003.063.031c-.01.03-.02.06-.028.09-.02.066-.04.132-.07.192-.174.36-.353.718-.532 1.076a57.21 57.21 0 0 0-1.08 2.247c-.5 1.123-.987 2.251-1.475 3.38-.558 1.291-1.116 2.583-1.694 3.866a61.82 61.82 0 0 1-1.87 3.767c-.353.66-.732 1.306-1.11 1.953-.297.506-.594 1.012-.878 1.525-.272.492-.523.996-.774 1.5-.149.3-.298.598-.45.894-.243.467-.173.91.2 1.168.37.254.863.152 1.157-.22.467-.588.946-1.168 1.426-1.744.042-.05.102-.085.163-.12.028-.015.056-.031.082-.049a5.1 5.1 0 0 1 .21-.13c.154-.094.309-.187.434-.31.163-.16.315-.334.466-.508.227-.261.454-.522.718-.735 1.048-.844 2.127-1.649 3.204-2.453l.28-.209c.16-.119.336-.213.513-.308.118-.063.237-.127.35-.197a.962.962 0 0 0 .228-.231l.012-.016c.033-.04.06-.087.087-.133a.72.72 0 0 1 .136-.182c1.429-1.25 2.862-2.497 4.298-3.739.097-.084.217-.155.338-.196.567-.196 1.074-.452 1.38-1.022.138-.258.13-.45-.135-.581l-.52-.257-.002-.001-.046-.023.494-.407a50.284 50.284 0 0 1 1.127-.911c.186-.14.37-.277.205-.542-.2-.323-.474-.18-.723-.035a1.264 1.264 0 0 0-.156.116l-.002.002c-.35.291-.697.584-1.045.878-.751.632-1.502 1.265-2.266 1.88-.468.377-.957.728-1.447 1.078-.219.157-.438.314-.655.474l-.074-.079.028-.092c.02-.067.041-.134.068-.197.219-.515.44-1.028.662-1.541.47-1.09.94-2.18 1.383-3.283.258-.643.486-1.299.714-1.954.186-.533.371-1.066.573-1.593.507-1.32 1.05-2.628 1.596-3.934.044-.104.237-.203.36-.203 1.734-.013 3.467-.014 5.2.002.125.002.324.133.363.247.345 1.003.668 2.013.986 3.025.12.38.233.76.347 1.142.116.392.233.784.356 1.173.156.493.595.736 1.045.605.442-.13.614-.492.494-1.038a.232.232 0 0 1 .006-.088l.014-.094c.051.092.103.178.153.26.107.175.203.333.264.505a.779.779 0 0 0 .705.544c.118.007.244-.106.373-.223.06-.053.12-.107.181-.151.33.303.57.36.771.137.272-.302.08-.557-.105-.8l-.008-.011c-.413-.546-.737-1.125-.781-1.835a1.406 1.406 0 0 0-.107-.398 771.862 771.862 0 0 0-.514-1.443c-.244-.686-.488-1.372-.729-2.058a20.21 20.21 0 0 1-.237-.735l-.105-.339c.052-.012.1-.02.146-.027a.576.576 0 0 0 .3-.115c.147-.1.324-.217.336-.34.026-.27-.22-.352-.469-.347-.018 0-.037 0-.056-.002a.39.39 0 0 0-.101.003c-.34.067-.451-.115-.518-.42-.026-.117-.05-.235-.075-.354-.103-.493-.207-.99-.393-1.451a59.18 59.18 0 0 0-.969-2.227c-.216-.48-.433-.959-.64-1.442-.287-.663-.56-1.332-.833-2.001-.147-.36-.294-.72-.443-1.078-.021-.053-.04-.11-.06-.169-.055-.164-.111-.332-.224-.4-.1-.06-.255-.03-.421.005a2.435 2.435 0 0 1-.233.04c-.098-.344-.002-.7.217-1.03.055-.084.116-.163.177-.242.2-.26.396-.515.38-.92-.003-.079.004-.158.01-.236.02-.212.037-.416-.155-.596.067-.083.136-.162.204-.24.148-.171.291-.336.404-.52l.028-.046c.143-.234.316-.516.28-.743-.07-.43.148-.647.387-.885l.02-.02.173-.173c.297-.297.593-.594.9-.88.173-.162.292-.327.13-.545-.178-.238-.412-.225-.618-.043-.414.368-.819.746-1.218 1.13a2.688 2.688 0 0 0-.095.096c-.14.149-.273.29-.541.261-.14-.015-.317.143-.45.26l-.008.008c-.153.137-.3.282-.447.427-.182.179-.364.357-.557.522-.28.238-.566.466-.853.695-.42.335-.84.67-1.236 1.032-.682.624-1.355 1.26-2.027 1.895-.773.731-1.546 1.462-2.335 2.175-.506.457-1.04.883-1.573 1.31-.373.298-.746.596-1.11.905a30.16 30.16 0 0 0-1.798 1.654c-.145.145-.275.478-.208.633.156.356-.02.514-.224.697l-.03.027-.104.091a1.695 1.695 0 0 0-.339.353c-.092.146-.189.393-.127.507.07.129.325.23.484.21.191-.024.385-.162.543-.294.39-.328.781-.653 1.173-.979 1.158-.963 2.317-1.927 3.432-2.94 1.008-.915 2.18-1.44 3.531-1.92-.098.214-.185.421-.27.622-.176.416-.34.802-.555 1.155-1.14 1.866-2.293 3.725-3.446 5.583-.597.963-1.195 1.926-1.79 2.89-.312.504-.615 1.012-.919 1.52-.157.265-.315.529-.473.792-.14.232-.186.465.09.612.284.151.462-.02.6-.267.084-.148.175-.289.267-.43zm9.456-8.372.917 2.816-.001-.001-2.486.3-.982.12-.11-.107 1.997-4.87.1.008.565 1.734zm49.496 11.56c0-.041-.001-.084.002-.128l-.004-.002.213.039c.17.03.334.059.494.1a.504.504 0 0 1 .178.111c.021.018.042.035.064.05.04.03.081.068.122.106.087.081.174.162.254.155.114-.01.25-.195.308-.332.105-.254.218-.343.501-.24.329.117.676.215 1.022.238.413.028.567-.249.377-.628-.08-.158-.17-.31-.262-.462-.12-.2-.24-.399-.331-.61a65.4 65.4 0 0 1-1.156-2.83c-.161-.424-.291-.858-.422-1.295-.059-.195-.117-.391-.179-.586l.07-.025a.474.474 0 0 1 .078-.023c.872-.163 1.743-.325 2.615-.483l.021-.003.03-.006c.103-.02.22-.042.291 0 .434.267.593.017.697-.366.097.008.196 0 .295-.009.27-.022.538-.044.737.273.03.05.331.006.43-.082.347-.308.484-.28.66.15.164.404.351.799.552 1.185.165.318.337.633.508.948.278.51.556 1.022.806 1.546.301.63.581 1.272.86 1.913.208.475.415.95.631 1.421.112.245.226.49.34.734.776 1.677 1.553 3.353 2.015 5.157.036.14.028.29.018.468-.005.093-.01.192-.01.302l-1.232-.824-.002-.002c-1.021-.684-2-1.34-2.988-1.98-.047-.03-.094-.063-.141-.095-.332-.23-.69-.475-1.087-.062-.14-.044-.26-.157-.378-.268-.25-.235-.49-.46-.883-.018-.115-.072-.226-.145-.337-.216-.252-.162-.497-.32-.75-.467a8.357 8.357 0 0 0-1.014-.523.555.555 0 0 0-.463.046c-.059.042-.063.163-.068.282-.002.047-.004.093-.009.134-.003.031-.002.065 0 .098.001.053.003.106-.015.151-.117.293.007.405.267.54.285.149.548.34.811.53v.001c.098.07.195.141.293.21.09.062.177.128.264.194.135.102.269.203.41.292.148.093.302.175.457.258.274.146.547.292.775.492.484.422.945.869 1.407 1.316.69.668 1.382 1.337 2.152 1.93 1.013.779 1.962 1.64 2.912 2.502.537.486 1.073.973 1.62 1.445.655.562 1.328 1.102 2.001 1.641.293.235.587.47.878.707.041.034.085.064.129.095.076.052.151.105.212.172.423.461.845.925 1.25 1.401.131.153.295.27.459.388.246.178.493.355.628.655.098.221.232.461.527.339.308-.128.25-.4.16-.647-.02-.05-.038-.1-.056-.151l-.053-.144a15.386 15.386 0 0 0-.454-1.15c-1.06-2.31-2.074-4.636-2.845-7.069-.158-.5-.392-.974-.626-1.45-.183-.37-.365-.741-.513-1.125-.31-.808-.595-1.626-.88-2.444-.212-.608-.424-1.216-.646-1.82-.416-1.13-.855-2.253-1.309-3.367-.19-.469-.4-.929-.612-1.389a66.063 66.063 0 0 1-.319-.702c-.024-.055-.04-.114-.056-.173l-.025-.089c-.038-.12-.072-.243-.106-.365v-.001c-.072-.261-.145-.522-.254-.767l-.213-.479c-.593-1.333-1.187-2.668-1.827-3.978-.84-1.718-1.7-3.427-2.56-5.135h-.001v-.002l-.002-.002-1.15-2.287c-.026-.054-.046-.111-.07-.18l-.044-.12.622.216a124.885 124.885 0 0 1 1.64.576c.204.07.415.144.578.274.477.38.948.768 1.418 1.157.37.306.74.611 1.112.912.094.075.294.138.37.088.163-.106.42-.35.388-.43a6.853 6.853 0 0 0-.47-.884h-.001v-.001c-.057-.095-.114-.19-.169-.285-.003-.005-.01-.007-.017-.009l-.01-.002a.032.032 0 0 1-.008-.005c-.092-.071-.186-.14-.28-.21a5.801 5.801 0 0 1-.61-.495c-.33-.32-.649-.651-.968-.983-.235-.244-.471-.49-.71-.73a4.771 4.771 0 0 0-.34-.298c-.19-.158-.38-.315-.52-.51-.5-.71-1.197-1.124-1.934-1.508a6.293 6.293 0 0 1-.87-.54c-.606-.452-1.207-.912-1.807-1.372l-.004-.002c-.286-.22-.572-.438-.858-.656-.1-.076-.202-.15-.304-.224a10.573 10.573 0 0 1-.454-.342c-.13-.105-.255-.215-.38-.325-.51-.447-1.016-.892-1.761-.962a3.09 3.09 0 0 1-.098-.011c-.188-.024-.347-.044-.424.169-.098.271-.075.545.19.746.321.241.639.487.964.74h.001l.462.358c-.462.261-.469.472-.1.736.11.077.214.158.319.239l.141.11c-.225.366-.208.404-.048.772l.007.017.285.652a109.48 109.48 0 0 1 1.44 3.4c.25.628.467 1.269.684 1.91.43 1.265.86 2.53 1.538 3.695a.918.918 0 0 1 .076.203c.012.039.024.081.04.127h-.73c-1.327 0-2.634 0-3.94-.007-.078 0-.201-.081-.227-.152a10.96 10.96 0 0 1-.297-.987c-.189-.742-.375-1.485-.56-2.227l-.368-1.465-.008-.032a5.05 5.05 0 0 0-.192-.643.411.411 0 0 0-.113-.136c-.051-.047-.1-.092-.114-.148-.135-.565-.268-.628-.748-.295l-.053-.114a2.96 2.96 0 0 1-.12-.286 1.906 1.906 0 0 1-.062-.26 5.844 5.844 0 0 0-.017-.086c-.064-.312-.315-.449-.539-.284-.15.11-.296.226-.453.35l-.191.152a17.713 17.713 0 0 0-.083-.158v-.002a7.147 7.147 0 0 1-.16-.317c-.136-.3-.306-.34-.586-.16a.41.41 0 0 1-.295.046c-.297-.08-.595-.042-.737.217-.096.176-.108.404-.12.624-.002.05-.004.1-.008.148a.591.591 0 0 0 .052.233c.013.036.026.071.036.107a.9.9 0 0 1-.177-.218c-.047-.072-.09-.138-.15-.18-.131-.095-.375-.178-.485-.115-.17.099-.296.313-.377.506-.013.031.09.112.193.194.05.039.1.078.137.112.021.02.046.038.072.057.056.042.113.085.131.14.087.265.168.532.248.8.11.363.22.726.345 1.085.25.722.521 1.437.807 2.145.084.206.184.407.283.607.154.309.306.617.4.943.382 1.347.712 2.71 1.035 4.073.225.946.423 1.898.62 2.85l.094.447c.064.307.101.62.134.933.014.134.018.27.022.408.007.262.014.524.094.76.09.26.28.488.466.712.05.062.102.124.15.186.111.14.262.253.408.36.089.066.216.153.302.131.107-.028.217-.142.273-.248.033-.063.031-.144.03-.233zm-5.133.363c.04-.05.082-.1.126-.145.346.283.38.248.711-.127.097-.109.203-.207.31-.305.127-.117.255-.234.37-.373.28-.341.376-.495.098-.887l-.065-.09a2.499 2.499 0 0 1-.308-.51 88.695 88.695 0 0 1-1.056-2.74l-.216-.593c-.827-2.264-1.653-4.526-1.975-6.944a16.45 16.45 0 0 0-.553-2.513c-.044-.147-.09-.293-.137-.44-.228-.717-.454-1.43-.374-2.208a3.61 3.61 0 0 0 0-.637c-.025-.355-.221-.47-.556-.396-.162.036-.383.05-.508-.033-.556-.372-1.354-.283-1.77.233l-.877 1.08-.294.36a12.021 12.021 0 0 1-.096-.193 4.507 4.507 0 0 0-.191-.363c-.147-.243-.357-.386-.621-.197-.266.19-.158.378.028.592.429.492.443.878.092 1.407-.68 1.024-1.363 2.046-2.045 3.067-.007.01-.02.016-.055.031-.025.011-.06.027-.11.052l-.256-.449a7197.08 7197.08 0 0 1-1.515-2.663c.19-.413.174-.456-.173-.765-.131-.118-.27-.25-.344-.404a28.916 28.916 0 0 1-.673-1.547.942.942 0 0 1-.069-.458c.017-.124.05-.247.081-.369.043-.16.084-.32.092-.48.006-.13-.138-.325-.262-.381-.093-.042-.276.071-.396.15a3.097 3.097 0 0 0-.298.241c-.188.164-.373.326-.582.363a3.052 3.052 0 0 1-.317.035c-.286.021-.566.042-.803.28-.024.023-.078.01-.137-.004a.36.36 0 0 0-.154-.016c-.134.035-.285.085-.378.18-.073.075-.112.186-.151.294a56.943 56.943 0 0 1-1.129 2.66c-.757 1.676-1.355 3.43-1.95 5.176l-.125.365c-.324.948-.594 1.915-.865 2.88a133.9 133.9 0 0 1-.33 1.162c-.39 1.352-.78 2.704-1.162 4.058-.11.392-.205.79-.283 1.19-.022.11-.016.226-.01.342.003.062.006.123.005.184 0 .055-.01.116-.018.177-.019.127-.037.253.017.312.065.07.196.08.326.089.058.004.115.008.167.017l-.003-.043.183.086.455.21c.135.48.297.537.756.222l.601-.411a2.59 2.59 0 0 1-.032.194c-.022.113-.04.201-.013.274.042.115.118.215.194.316.033.043.065.086.095.13l.124-.09c.099-.067.197-.135.257-.227.065-.1.094-.223.126-.355.014-.06.029-.121.047-.183.276.178.531.241.644-.088.053-.157.06-.33.066-.506.003-.079.006-.159.014-.238l.072.019c.29.074.588.15.7-.196.32-.99.63-1.985.873-2.995.104-.431.172-.87.24-1.31.065-.423.13-.844.227-1.259.218-.933.465-1.859.713-2.785l.32-1.204.157-.615.119-.461c.1-.388.202-.776.3-1.144l.034-.13.71.84c.519.616 1.027 1.22 1.544 1.816.34.391.378.564.09 1.006-.154.239-.131.523.116.546.331.03.492.235.652.438a2.4 2.4 0 0 0 .224.257c.2.207.383.397.707.18.03-.021.093-.003.137.01.089.028.178.059.266.09.201.07.402.139.609.175.123.022.318-.065.395-.169.057-.075.011-.245-.023-.373l-.006-.022a.344.344 0 0 0-.1-.136c-.02-.02-.04-.04-.057-.06l.047-.085.018-.033c.038.016.077.03.116.044.09.032.181.064.254.12.184.14.363.24.559.052.197-.19.117-.365-.037-.555a6.016 6.016 0 0 1-.515-.75c-.059-.102-.107-.282-.059-.365.424-.727.86-1.446 1.297-2.164l.343-.565c.4 1.146.71 2.239 1.007 3.336l.052.193c.537 1.984 1.075 3.97 2.006 5.813.314.62.536 1.257.723 1.923a9.88 9.88 0 0 0 .634 1.62c.066.138.351.252.512.227.085-.014.152-.186.212-.342l.048-.12c.049-.112.082-.23.105-.313l.02-.066c.113.025.217.046.314.065.208.042.382.077.553.129.103.03.197.097.29.162a1.383 1.383 0 0 1 .21.163c.093.083.184.165.274.161.083-.003.162-.1.248-.206zm-26.186-.205c-.005.018-.007.039-.01.06-.005.045-.01.09-.036.111-.025.02-.05.044-.077.067-.103.091-.215.191-.304.175-.115-.02-.276-.22-.282-.348a11.27 11.27 0 0 1 .013-1.01l.015-.381a2.28 2.28 0 0 1 .019-.204c.019-.15.037-.301-.012-.423-.163-.41-.347-.81-.532-1.211a42.97 42.97 0 0 1-.335-.742 6.76 6.76 0 0 1-.177-.466c-.05-.143-.1-.285-.159-.423-.236-.56-.477-1.118-.73-1.705l-.305-.707-.208.474c-.142.32-.276.624-.403.93l-.056.136c-.34.823-.682 1.646-1.002 2.477-.043.113-.052.238-.062.363a1.62 1.62 0 0 1-.042.305c-.064.236-.14.481-.272.682l-.036.056c-.15.23-.29.442-.347.739-.09.457-.256.9-.42 1.34l-.062.166c-.034.092-.242.214-.287.187a1.038 1.038 0 0 1-.246-.255c-.034-.043-.07-.09-.11-.135-.052.035-.108.076-.169.12-.154.109-.334.237-.521.351-.369.226-.43.158-.71-.152a4.456 4.456 0 0 0-.023-.027c-.807-.896-.853-1.988-.892-3.097a2.742 2.742 0 0 0-.141-.696 52.85 52.85 0 0 0-.615-1.88c-.021-.06-.078-.105-.136-.152-.038-.03-.076-.06-.105-.095a2.002 2.002 0 0 0-.105-.111c-.099-.1-.2-.202-.201-.304a6.412 6.412 0 0 0-.54-2.507c-.144-.334-.252-.683-.36-1.033-.102-.335-.206-.67-.34-.991-.172-.406-.369-.801-.566-1.197a19.948 19.948 0 0 1-.592-1.262c-.124-.3-.173-.632-.221-.964a11.065 11.065 0 0 0-.06-.382 32.433 32.433 0 0 1-.116-.685c-.03-.189-.06-.378-.094-.567-.036-.208-.13-.343-.326-.482-.264-.189-.165-.419-.066-.647.036-.085.073-.168.09-.25.033-.146.061-.293.09-.439l.004-.02.03-.158c.02-.114.04-.228.07-.338.052-.184.12-.362.19-.538l.013-.035A.605.605 0 0 1 24.8 6.2c.208-.182.953-.136 1.128.087.237.305.462.619.694.942.1.14.2.281.305.424.135.048.282-.044.428-.136.225-.142.449-.283.63.087.078.017.152.027.221.036.143.019.262.034.328.101.054.056.046.172.039.29a1.323 1.323 0 0 0-.002.218c.005.083.01.17.038.245l.22.584c.431 1.142.862 2.284 1.306 3.42.262.671.535 1.338.82 2.033l.39.95c.11-.183.217-.357.322-.525.22-.356.427-.688.604-1.034.538-1.046 1.055-2.102 1.571-3.158.06-.12.118-.241.177-.362.07-.145.127-.296.184-.448.032-.084.063-.168.097-.251.13-.317.335-.472.703-.427.234.03.345.1.409.333.079.29.175.577.277.878l.137.41.084-.063a2.01 2.01 0 0 1 .113-.083c.273-.178.529-.062.558.27 0 .012.002.024.003.035.019.214.039.44-.015.64-.338 1.27.095 2.389.646 3.484.056.113.135.214.23.338.05.064.106.136.165.218l.21-.487c.123-.283.227-.522.324-.764.225-.562.448-1.124.671-1.687.401-1.01.802-2.018 1.211-3.024.091-.223.206-.436.32-.648.084-.157.169-.313.244-.474.048-.103.07-.219.093-.334.01-.052.02-.104.033-.155.014-.055.026-.112.038-.169.076-.364.151-.724.65-.801.078-.012.146-.078.216-.145a.783.783 0 0 1 .158-.128c.124-.066.322-.163.396-.112.112.077.184.267.203.418.02.143.007.29-.006.438-.006.065-.011.13-.014.196l.173.04.189-.482c.155-.396.31-.792.457-1.191a7.76 7.76 0 0 0 .156-.486c.041-.142.083-.284.132-.423.102-.289.27-.492.62-.392.047.013.103.02.151.008.576-.14.813.115.743.845a8.05 8.05 0 0 1-.017.153c-.034.287-.067.563.09.847.064.118.054.332-.008.46-.316.648-.478 1.342-.64 2.035-.09.384-.179.768-.294 1.144-.36 1.17-.755 2.328-1.15 3.487-.168.495-.337.99-.503 1.486-.15.45-.304.899-.457 1.348-.352 1.028-.703 2.057-1.023 3.096-.268.875-.487 1.765-.706 2.656l-.18.727a6.752 6.752 0 0 0-.105.545c-.041.25-.083.498-.16.735-.243.74-.685.866-1.367.403-.017.074-.032.147-.046.22-.033.167-.065.328-.127.476-.068.159-.2.375-.333.4-.255.047-.348-.176-.35-.417V24.72l-.057-.005z" fill="#fff"/>
</svg>
