<?xml version="1.0" encoding="utf-8"?>
<!-- Generator: Adobe Illustrator 27.2.0, SVG Export Plug-In . SVG Version: 6.00 Build 0)  -->
<svg version="1.1" id="Layer_1" xmlns="http://www.w3.org/2000/svg" xmlns:xlink="http://www.w3.org/1999/xlink" x="0px" y="0px"
	 viewBox="0 0 600 600" style="enable-background:new 0 0 600 600;" xml:space="preserve">
<style type="text/css">
	.st0{fill:#FFFFFF;}
</style>
<path class="st0" d="M300,50L0,95.6v408.7l237.5-360.8l-36.5,15c31.5-26.4,64.5-56.4,98.9-89.8l-51.8,89.2l2.6,10.3l44.9-50.2
	l-14.4,118l-51.2,45.6l25-91l-19.3,21.1l-6.1-21.8L129.3,359.4L177,334L0,504.4L300,550v0l300-45.6V95.6L300,50z M578.4,485.4
	l-256.8,39.1v-449l256.8,39.1V485.4z"/>
<path class="st0" d="M565.6,306.8L341.2,310v-27.7l224.5,1V306.8z M398.5,182.4c9.1-0.4,13.8-13.2,13.8-28.3
	c0-21.3-9.4-35.6-24.4-37.4l-45.5-5.4v139.3l49,1.6c15,0.5,24.3-12.7,24.3-35.7C415.8,196,408,184.4,398.5,182.4z M361.1,141.5
	l23.8,2.4c6,0.6,9.9,3.9,9.9,14.1c0,10.4-3.9,13-9.9,12.5l-23.8-2V141.5z M387.7,224.7l-26.6-1.3v-28.9l26.6,1.8
	c6.3,0.4,10.1,3.8,10.1,14.7S394,225,387.7,224.7z M451.1,223.7v-99.6l-16.8-2v131.5l54.1,1.7v-29.7L451.1,223.7z M564.3,257.8
	L541,183.5l22-46.2l-17.9-2.1L519,189.7v-57.5l-15.3-1.8v125.5l15.3,0.5v-28.9l11.4-23.7l17,53.5L564.3,257.8z M399.8,410.6
	c9.5-1.9,14.4-16,14.4-31.7c0-22.3-9.8-35.8-25.5-35.3l-47.4,1.4v145.8l51.1-5.9c15.6-1.8,25.3-17.1,25.3-41.1
	C417.7,422.2,409.7,411.2,399.8,410.6z M360.7,373.6l24.9-1.2c6.3-0.3,10.4,2.5,10.4,13.2c0,10.9-4.1,14.2-10.4,14.6l-24.9,1.6
	V373.6z M388.4,456.5l-27.7,2.7V429l27.7-2.2c6.6-0.5,10.5,2.4,10.5,13.8C398.9,452.1,395,455.9,388.4,456.5z M565.1,337.8l-17,0.5
	l-14.1,39.5l-14.4-38.6l-19,0.6l24,62.7l-24.5,68.1l18-2.1l15-42.5l14.7,39.1l17.9-2.1l-23.3-62.3L565.1,337.8z M463.6,480
	c22.3-2.7,36.5-29.9,36.5-74.4s-14.2-69.6-36.5-69c-23,0.6-38.2,27.8-38.2,74.5S440.6,482.7,463.6,480z M463.6,452.8
	c-11,1.4-17.9-14-17.9-42.8s7-45.6,17.9-46.2c10.8-0.7,17.4,14.8,17.4,42.9C481,434.7,474.4,451.4,463.6,452.8z"/>
</svg>
