<svg width="60" height="60" viewBox="0 0 60 60" fill="none" xmlns="http://www.w3.org/2000/svg">
    <g clip-path="url(#dezia6g5ea)">
        <path d="m17.628 15.938-.022-.004.022.042v-.038z" fill="#fff"/>
        <path d="M20.247 31.135c-.004-.226-.038-.45-.055-.675-.008-.099 0-.199-.01-.298-.014-.148-.043-.296-.053-.446-.018-.266-.023-.534-.037-.802-.022-.43.128-.86.11-1.29-.018-.417-.029-.834-.04-1.25-.015-.558-.029-1.117-.038-1.675-.007-.351.003-.704-.008-1.056-.011-.3-.051-.6-.062-.9-.013-.325-.006-.649-.008-.973a54.346 54.346 0 0 0-.013-.663c-.004-.147-.02-.293-.018-.438.004-.346.018-.692.024-1.04.002-.202-.033-.821.005-1.015.047-.236-.02-.451-.071-.664-.054-.228-.177-.44-.276-.655-.013-.028-.058-.048-.092-.054-.053-.008-.106-.001-.168-.001.022.099-.03.163-.146.173-.156-.111-.171-.264-.126-.43-.02-.002-.029-.004-.037-.003-.063.012-.144.055-.183.03-.076-.05-.048-.133-.03-.222a.441.441 0 0 0-.066-.304c-.05-.075-.077-.122-.038-.21.113-.257.096-.564-.206-.703-.047-.02-.082-.064-.125-.096-.05-.038-.088-.075-.148-.096-.11.251-.301.529-.493.728-.025.026-.058.052-.092.045-.033-.007-.051-.04-.066-.069l-.053-.104v.095c-.005.19.002.382-.02.57-.011.092-.078.176-.12.263l-.046-.013c0-.054-.022-.123.004-.158.103-.149.033-.285-.008-.426-.013-.044-.01-.093-.014-.141l.033-.003.022.084.112-.318.018.005c-.042-.087-.086-.172-.129-.259-.026-.052-.058-.108-.114-.125-.095-.027-.171.076-.215.164l-.215.425c-.09-.064-.078-.232-.184-.267-.08-.028-.158.05-.182.13-.025.08-.018.168-.05.246-.031.077-.129.14-.197.093-.039-.026-.053-.077-.065-.122a1.839 1.839 0 0 0-.283-.592c-.115.18-.225.365-.33.552-.107-.126-.273-.134-.31.064-.036.186-.059.374-.096.561-.017.087-.003.21-.122.223-.044.004-.098-.09-.16-.152-.04.061-.092.138-.144.212-.014.02-.038.043-.059.043-.126 0-.173.083-.194.184-.037.18-.068.36-.091.542-.042.338-.079 1.088-.112 1.425-.026.275.018.547-.012.827-.041.366.01.742.02 1.114.005.13 0 .262.006.393.007.17.02.34.029.51.01.18.027.363.031.544.003.102-.026.204-.024.304.004.206.024.41.03.617.01.328.008.655.02.983.011.279.044.557.049.835.005.32.023.64-.018.96-.011.085.045.178.05.268.009.215.003.432.006.65.005.434.008.871.02 1.306.003.14-.14.28-.135.42.005.163-.013.328-.008.49.006.32.027.638.031.958.003.202.056.394.018.608-.055.312-.029.638-.039.956-.01.32-.024.64-.026.96 0 .3.018.599.02.898.002.375.004.752-.009 1.127-.018.5.003 1-.08 1.498-.072.423-.11.851-.148 1.278-.024.274-.024.55-.031.824-.002.065.027.13.023.195-.012.216.139.43.13.646-.004.122.028.245.028.37 0 .145-.029.29-.023.436.016.47.046.94.063 1.41.005.168-.02.337-.024.504-.002.275.01.55.002.824-.007.246-.032.49-.052.736-.015.176-.058.353-.051.528.02.517.059 1.034.09 1.551.014.245.036.49.036.734 0 1.03-.266 2.084.054 3.095a1.87 1.87 0 0 0 .379-.73l.232.33.136-.11c.055.08.11.16.163.24l.261-.465.305.76c.011.026.026.056.054.059.023.003.042-.015.057-.033.139-.163.145-.407.27-.578.02-.026.045-.051.076-.054.081-.007.091.114.136.181.119.175.658-.126.856-.1.143.02.276.105.419.138.195.043.392.074.553-.11.047-.054.16-.105.217-.084.084.03.168.07.254.081.102.012.177-.012.274.047.026.015.055.035.082.026.034-.011.043-.055.05-.09a.421.421 0 0 1 .072-.162c.008-.012.02-.024.035-.027.028-.005.05.026.063.052.031.068.063.135.096.2.114-.12.11-.333.247-.426.076.12.122.26.135.403.008.096.002.2.056.28a.06.06 0 0 0 .029.027c.035.01.057-.036.064-.073.051-.268.132-.59.098-.863-.033-.26-.118-.51-.058-.777.076-.334.098-1.577.124-1.92.013-.184-.026-.37-.026-.556 0-.19.004-.385.028-.574.025-.192.042-5.626.047-5.89.006-.267.03-4.053.026-4.439-.005-.456-.048-.911-.013-1.37.019-.249-.02-.501.008-.747.042-.386.013-.77.007-1.154l.002.002zM15.898 17.04c-.003.006-.037 0-.056 0 .003-.046 0-.091.01-.135.008-.036.034-.069.063-.126.024.052.046.077.042.096a.866.866 0 0 1-.059.163v.002zm.7-.477.104-.225c.093.139.016.192-.104.225zm.54-.427c-.041-.066-.077-.098-.078-.13 0-.03.036-.06.056-.091.024.036.055.069.067.107.007.02-.019.052-.045.114zm.838 1.003c-.03.09-.084.174-.13.259-.005.007-.046.003-.057-.008-.012-.013-.015-.041-.01-.06.028-.11.053-.219.09-.325.012-.034.056-.056.1-.097.005.115.026.18.008.232l-.001-.001zm.158-.64c-.006.03-.026.056-.04.083l-.058-.03c-.064-.168-.01-.34-.001-.51 0-.026.074-.056.117-.063.015-.002.061.057.059.083-.02.147-.048.292-.077.438zM47.68 47.217c-.023.064.06.275.119.276.037.002.107-.046.111-.074a4.22 4.22 0 0 1-.209-.26l-.022.06v-.002z" fill="#fff"/>
        <path d="M42.116 31.214c-.036.064-.066.135-.052.197.03.15.057.291-.064.416-.012.012-.004.05.002.077.024.129.064.255.075.386.02.247.026.495.033.744.004.173-.005.348 0 .52.007.179.03.358.039.536.005.109.004.217 0 .324-.002.043-.028.085-.026.128.005.16.015.32.027.48.004.056.02.11.03.167.01.056.024.111.028.167.008.094.012.188.018.283.002.044.022.096.007.132-.083.192-.027.376.021.562.016.059.007.134.042.175.061.073.05.113-.02.16a.093.093 0 0 0-.035.05c-.032.136-.06.274-.092.422.084.045.136.124.048.247-.013.017-.006.048 0 .073.012.081.04.162.04.243 0 .124-.018.246-.026.37-.011.173-.023.346-.028.519-.004.156-.003.314.004.472.014.302.033.604.055.905.004.051.03.102.058.187-.076.081-.118.2.029.3-.033.051-.081.093-.081.134 0 .145.022.29.027.435.012.337.003.676.037 1.01.015.148.008.532.006.881.004-.008.008-.004.015.017.007.022-.004.048-.017.075v.26a5.461 5.461 0 0 1-.007-.245.148.148 0 0 0-.019.069c.007.114.018.227.029.34l.005.084c.003.03.003.02.002-.016l.014.136c.028.291.059.58.083.872.025.285.035.574.069.858.02.175.085.342.117.517.089.491-.24 1.164-.03 1.628.032.069.406-.015.519-.018.023 0 .045.076.072.112.033.042.07.082.108.122.02.02.053.033.066.056.075.139.146.28.22.42.017-.035.014-.07.014-.104 0-.059-.022-.156.004-.172a.4.4 0 0 1 .226-.05c.162.016.08.168.136.293.061-.067.11-.12.16-.171a.64.64 0 0 1 .098-.079c.075.076.222.088.213.248-.003.05.057.104.09.156l.017-.01.068.23.048.003c.016-.039.032-.077.043-.117.036-.117-.058-.238.008-.353.014-.025.033-.052.058-.063.012-.006.05.02.059.041.038.074.07.153.115.25.016-.085.03-.144.035-.205 0-.023-.02-.063-.039-.07a.284.284 0 0 1-.068-.03 2.082 2.082 0 0 1-.064-.23c.267-.161.301.186.5.252.359.12.576-.567.714-.813.276 0 .35.46.624.494.033-.064.1-.11.173-.118.069.136.17.257.292.348.318-.194.164-.773.48-.968l.134.19.066-.17c.041.063.081.105.096.153.026.089.047.181.047.276.077.088.157.17.242.24.298-.419.143-1.339-.102-1.758a.125.125 0 0 1-.015-.07c.022-.192.04-.386.071-.577.007-.04.062-.075.094-.112.031-.037.078-.073.088-.115.029-.136.042-.276.061-.415a.18.18 0 0 0-.01-.076.635.635 0 0 1-.046-.387c.035-.19.004-.393-.003-.59-.005-.149-.027-.3-.027-.45 0-.075.003-.237.007-.425-.004.199-.008.332-.01.267-.005-.138.002-.995-.01-1.134-.035-.383-.078-.765-.112-1.148-.017-.18-.044-.364-.029-.542.036-.438-.12-.861-.07-1.3a1.74 1.74 0 0 0-.029-.462c-.05-.337.073-.673-.022-1.011-.042-.151-.019-.319-.038-.478-.017-.13-.077-.257-.077-.385.003-.314.027-.628.05-.943.005-.045.057-.088.087-.132l.041.014c-.015-.087-.042-.173-.042-.26-.003-.41 0-.82.005-1.23 0-.054.044-.104.064-.158.01-.032.034-.082.02-.099-.147-.173-.095-.382-.071-.566.029-.228.012-.457.074-.686.05-.186.003-.397-.006-.596-.012-.275-.031-.55-.04-.826-.013-.342-.02-.684-.03-1.026-.01-.358-.022-.716-.03-1.076-.003-.094.008-.188.01-.282 0-.044-.011-.086-.018-.13h-.032l-.046.158-.039-.006c.007-.053.018-.105.022-.159.004-.08.007-.16.002-.24-.006-.085-.105-.165.05-.261.206-.128.168-.427-.052-.529-.101-.048-.064-.1-.052-.151.012-.058.036-.117.036-.174 0-.102-.013-.205-.02-.308-.01-.124-.028-.247-.024-.37.008-.234.035-.468.046-.703.016-.316.021-.633.03-.949 0-.024-.01-.049-.016-.075l-.03.022c-.03-.025-.08-.046-.088-.076a.98.98 0 0 1-.04-.274c.006-.2.026-.4.041-.6l.116.046-.073-.531c-.1.048-.12-.011-.12-.1.002-.318 0-.636.002-.955 0-.128.01-.255.02-.383.006-.08-.002-.154-.07-.223-.013-.012-.015-.057-.006-.061.076-.039.05-.118.075-.168.085-.173.052-.325.006-.486a.798.798 0 0 0 .012-.228c-.011-.104-.074-.224-.043-.31.081-.224-.031-.415-.023-.632.007-.195.047-.365.033-.574-.005-.09-.001-.183-.014-.272-.008-.055-.023-.099-.019-.155.011-.165.066-.333.066-.497.015-.117.032-.235.04-.353.029-.422-.04-.845-.018-1.268.011-.225.048-.45.038-.675a.083.083 0 0 1-.04-.003.247.247 0 0 0-.009-.072.278.278 0 0 0-.055.11.502.502 0 0 0-.133-.258.488.488 0 0 1-.103.063.314.314 0 0 0-.132-.145c-.056.07-.12.134-.188.19l-.028-.078a.098.098 0 0 1-.064.047.118.118 0 0 0-.017-.077.462.462 0 0 0-.132.276c-.049-.03-.11-.04-.157-.069-.03-.017-.07-.088-.113-.074-.124.039-.136-.052-.162-.12-.032-.08-.05-.165-.074-.248.008.132-.078.197-.172.236-.014.007-.08-.107-.115-.153l-.05.229-.064-.04-.07.223-.05.008c-.046.008-.123-.308-.164-.346l-.17.215c-.032.042-.078.088-.129.076a.13.13 0 0 1-.06-.045 2.585 2.585 0 0 1-.174-.215c-.062.054-.132.112-.215.112-.114 0-.195-.112-.243-.216-.048-.104-.092-.224-.193-.276-.1.071-.139-.073-.146.05-.008.122.008.247-.012.367-.014.08-.048.164-.122.197-.17.077-.134-.136-.208-.194-.045-.034-.285-.067-.31-.003a.279.279 0 0 1-.109.153.566.566 0 0 1-.126.05l-.05-.058a.934.934 0 0 0-.063.166c-.048-.044-.06-.113-.08-.175-.018-.061-.056-.129-.12-.138a.246.246 0 0 1-.072.04.233.233 0 0 1-.061-.143c-.06.018-.125.035-.183.01-.067-.028-.165-.079-.188-.083-.011-.003-.018-.012-.025-.022l-.056-.082c-.006.021-.111.063-.132.089a.326.326 0 0 1-.146.077c-.017-.002-.032-.017-.043-.032a1.066 1.066 0 0 1-.087-.12c-.066.084-.071.144-.151.216L42 15.64c-.07.122-.064.264-.068.4l-.013.373-.035 1.071-.033.997-.014.441a6.248 6.248 0 0 0-.023.574c0 .401 0 .802.004 1.203 0 .025.02.05.023.076.011.075.015.152.026.228.01.071.024.141.032.211.012.107.033.216.029.323-.003.084-.051.166-.051.25 0 .148.012.298.037.443a.712.712 0 0 1-.026.355 1.65 1.65 0 0 0-.054.593c.011.183.078.363.12.544.015.068.035.136.044.206.02.186-.025.376.055.561.026.06-.018.151-.032.227-.007.044-.023.088-.023.133-.003.146 0 .29 0 .436 0 .049-.003.1.002.15.007.06.03.122.028.182-.008.26-.033.52-.035.78-.002.508.006 1.016.013 1.524 0 .046.025.09.037.136.015.065.06.146.038.194-.071.15-.048.288.005.432.006.021-.011.05-.013.076-.01.137-.048.279-.025.41.024.128.075.244-.028.359-.013.014-.013.041-.014.062-.01.13-.017.26-.028.391-.01.121-.053.246-.035.361.038.252.105.499.163.759l.018.105-.008.008zm.415-5.008v-.415c.087.113.08.286 0 .415zm-.097-3.505-.035.015-.128-.091.005-.044.147-.013.011.133zm-.324 1.632.037-.526c.157.162.14.37-.037.526zm-.01.582c-.046-.064.014-.316.106-.373 0 .123.003.236-.002.348 0 .02-.03.044-.051.053-.012.005-.041-.013-.052-.028zm.124 2.833c.024-.004.066.02.076.044.052.114.071.23-.018.32-.045-.056-.087-.107-.125-.158-.037-.05.007-.195.067-.204v-.002zm.286-.57c-.025-.145-.203-.237-.143-.412.054-.155.118-.306.186-.479.11.12.028.24.026.352-.003.118 0 .235 0 .396.066.077.063.094-.07.143zm.154 11.283c-.1-.178-.007-.322.08-.498.094.2.05.424-.08.498zM47.15 18.42c-.01.008-.055-.02-.074-.04-.065-.068-.08-.139-.025-.226.02-.03.01-.078.014-.118l.037-.01c.035.104.072.207.098.314.005.023-.025.064-.05.08zm.238-.525-.16-.195.018-.043c.044.007.116 0 .128.024.032.057.037.13.054.197l-.04.018v-.001zm.448 11.132c.026-.041.022-.102.046-.153.13.2.117.401.02.61l-.18.034a111.18 111.18 0 0 0-.021-.368c0-.012 0-.031.01-.037.04-.03.098-.046.125-.086zm-.086-1.613.044.403c-.11-.115-.15-.238-.044-.402zm.016-.03c-.087-.097-.088-.147-.01-.254.125.09.05.165.01.254zm.002-2.57.068.013c-.005.063-.007.128-.011.191-.027-.02-.073-.036-.076-.056-.006-.048.011-.099.02-.148zm.014.707v.305c-.111-.087-.11-.173 0-.305zm-.01-1.924v.202c-.13-.043-.14-.1 0-.202zm.025 7.771c.154-.126.151-.228.006-.47a.663.663 0 0 1-.07-.22c-.025-.132-.058-.266-.06-.4 0-.22.025-.44.039-.658l.033-.01.1.244c.02.045.052.087.06.134.013.084.057.16-.031.254-.066.07-.055.21-.08.32l.044.007.062-.158c.12.05.12.15-.008.282.144.032.125.133.114.241-.01.098.014.2.005.298-.01.132-.034.264-.057.429a27.248 27.248 0 0 0-.158-.293h.001z" fill="#fff"/>
        <path d="M42.317 42.919a.445.445 0 0 0-.007.108l.007-.016v-.092zM48.269 42.639c.006-.344.015-.756.015-.89 0-.125-.009.486-.015.89zM29.747 31.114c.026-.114.004-.239.004-.36.002-.14.009-.28.007-.42 0-.188-.015-.376-.01-.564.006-.216.03-.433.04-.649.013-.23.024-.461.032-.69.004-.134.003-.268.004-.401.002-.15.014-.3.004-.45-.018-.277-.05-.554-.07-.832-.005-.074.01-.148.007-.222-.01-.322-.291-.628-.248-.957.019-.147.006-.298 0-.447a.197.197 0 0 0-.049-.115c-.08-.084-.04-.114.043-.124l.034-.667h-.012l-.073.408-.053-.004c-.025-.18-.068-.359-.069-.539 0-.206.044-.41.052-.616.018-.445.023-.89.036-1.335.005-.214.01-.428.02-.643.01-.274.035-.55.038-.824.005-.601.09-1.299-.124-1.86-.243-.643-.275-1.289-.261-1.982.008-.385.032-.793-.15-1.132-.072.133-.148.27-.265.367-.118.096-.29.141-.424.071-.05-.026-.093-.067-.148-.083-.179-.055-.366.171-.535.091-.096-.045-.138-.174-.24-.203-.163-.045-.294.202-.461.172-.076-.014-.128-.081-.19-.126-.093-.07-.427.061-.434.138l.032-.377-.039-.016-.134.259-.03-.007c-.006-.088-.013-.175-.018-.272l-.276.488-.041.005-.07-.321c-.046.09-.076.173-.125.243a.87.87 0 0 1-.176.185c-.014.011-.075-.044-.117-.062-.023-.01-.058-.019-.077-.008-.172.095-.338.02-.51.005-.266-.023-.535.01-.803.024-.04.003-.099.023-.112.053-.082.184-.2.37-.217.562-.03.322.01.65.015.975.004.216.008.431-.002.646-.012.258-.088.508-.066.773.025.284.006.574.011.86.007.339.015.675.032 1.011.01.196.037.388.052.583.017.211.03.424.037.636.003.096-.019.193-.02.29-.003.108.013.215.005.32-.02.242-.053.483-.074.724-.01.106.006.215-.004.322-.037.398.427.798.38 1.196-.03.253-.077.504-.115.757-.006.035-.004.071-.008.105-.022.22.1.44.078.66-.195 1.992-.073 4.107-.072 6.123.003 2.922.16 5.78.292 8.671.013.291-.102.582-.081.873.018.261.035.522.046.783.004.098-.016.197-.007.293.016.155-.13.309-.11.464.02.141.035.283.053.435l.148-.077c.018.033.034.064.052.094l.04-.02c-.008-.037-.015-.074-.026-.108-.017-.05-.053-.102-.053-.152a7.598 7.598 0 0 1 .016-.502c.003-.044.195-.114.221-.125.036-.013.09.018.136.03-.015.01-.21.02-.225.03l.036.241c.01.085.02.17.027.256.004.048-.008.098.004.144.034.126.078.25.115.376.007.025.009.062-.005.078-.088.107-.044.228-.043.345.002.07-.012.139-.019.209h-.034l-.144-.569-.072.192a23.294 23.294 0 0 1-.143-.243l-.031.011c.013.161.027.32.044.481 0 .011.016.02.022.033.056.117.171.23.018.358-.009.007-.01.025-.009.037.026.25.05.502.08.75.014.111.04.221.062.333l.056.252.048-.01c-.018-.117-.045-.235-.05-.354a.397.397 0 0 1 .058-.192c.014-.025.069-.027.105-.04.01.054.024.107.03.161.01.092.01.184.02.276.012.109.03.216.04.324.002.02-.024.05-.044.058-.017.005-.05-.011-.064-.028-.039-.045-.069-.097-.103-.145l-.045.037c-.044.217.092.4.126.62l.106-.186c.138.075.05.34.258.302.096.111.177.206.246.284.094.025.195.022.254.072.088.072.155.08.262-.011v.263c.071-.056.114-.096.162-.125a.182.182 0 0 1 .102-.016c.05.005.097.023.12.029.066-.146.12-.264.175-.38l.027.005.05.49c.19-.055.489-.26.641-.05.092-.059.166-.135.249-.148.086-.012.182.032.272.063.042.016.093.048.108.087.041.104.137.198.07.332-.019.04.006.1.011.176l.297-.181c-.032-.11-.069-.209-.087-.312-.007-.034.02-.095.05-.114.048-.03.111-.037.167-.055.009.047.017.093.024.14.013.085-.042.188.09.279.025-.12.044-.222.066-.325l.084-.399.058.01c.019.155.163.313-.033.461-.014.01-.015.041-.015.063-.002.125-.006.25 0 .374 0 .039.026.074.04.113l.053-.005c.005-.072.027-.146.015-.217a.37.37 0 0 1 .2-.395c.03-.014.05-.062.067-.097.042-.093.08-.187.12-.282l.03.011c.027.137.051.275.077.412l.033.008c.013-.03.03-.059.035-.089.01-.076.023-.136.1-.185.066-.043.103-.13.15-.2.104-.152.094-.313.04-.479-.007-.022.006-.05.012-.08.05.003.096.017.136.007.206-.048.311.04.345.238 0 .007.013.01.002.003l.198-.081c-.011-.085-.026-.176-.034-.268-.006-.062.005-.124.002-.185-.005-.105-.008-.21-.028-.312-.026-.13-.083-.256-.102-.387-.026-.18-.026-.364-.044-.547-.012-.13-.041-.26-.055-.39-.016-.154-.02-.31-.036-.464-.01-.123-.035-.243-.045-.366a28.732 28.732 0 0 1-.044-.68c-.004-.085.188-.172.175-.255-.028-.166-.07-.33-.105-.495a.487.487 0 0 1-.012-.119c.007-.136.027-.273.026-.409-.003-.254-.018-.507-.029-.76-.001-.034-.011-.068-.016-.104-.04-.25-.072-.498-.1-.748l.034.003c.005-.066.015-.134.013-.2-.002-.118-.013-.236-.019-.352-.008-.16.01-.325-.027-.477-.065-.262-.046-.522-.033-.783.005-.123.027-.241-.02-.366-.026-.064.007-.15.017-.227.006-.038.022-.075.025-.114.016-.205.027-.41.045-.614.025-.268.062-.534.08-.802.019-.273.03-.548.028-.822 0-.145-.032-.29-.059-.433-.006-.04-.045-.074-.068-.108-.187.137-.068.32-.102.475-.023.108.008.23.018.346.007.078.015.156.025.235.008.068.044.141.029.203-.06.236-.025.47 0 .704.012.106.064.23-.077.305-.024.012-.028.06-.039.092-.015.04-.027.078-.042.122l-.044-.024c-.087-.263-.198-.515-.2-.797-.004-.253.002-.51.028-.763.023-.238.058-.474.07-.713.012-.228 0-.456.004-.684.006-.257.02-.512.029-.768.003-.064.006-.13.001-.195-.01-.181-.022-.362-.031-.543-.002-.03.007-.062.01-.092.027-.191.06-.38.076-.572.013-.143 0-.288.01-.431.004-.055.043-.107.066-.16l.042.003c.014.058.036.114.042.172.023.282.034.566.066.846.02.183.017.352-.076.515-.02.036-.02.086-.018.13.007.17.025.344.028.515.005.275 0 .55 0 .824l.04.013c.035-.043.09-.081.105-.13.052-.172.111-.347.13-.523.045-.418.07-.84.097-1.26.01-.144-.003-.291.008-.436.017-.215.056-.43.065-.645.004-.109.1-.218.076-.328-.024-.117-.122-.232-.02-.35.137-.161-.121-.359-.08-.535v-.001zM24.15 29.62c-.032.178-.074.357-.111.534-.012.05-.021.099-.032.148l-.055-.01c0-.131.003-.262 0-.392-.003-.077-.017-.155-.022-.232-.006-.082-.02-.168-.008-.249.005-.038.066-.09.104-.093.041-.003.113.037.122.073a.52.52 0 0 1 .002.22zm.046 16.106-.04-.012-.014-.228.052-.016c.03.058.068.114.085.176.005.018-.054.054-.083.081v-.001zm.681-9.259v-.211c.11.071.084.141 0 .211zm-.227-5.346-.06.19-.043-.006-.035-.256.138.072zm-.272 7.696-.052-.007c.113.137-.005.22-.06.319-.103-.084-.115-.219-.038-.503l.06.027.12-.056-.03.22zm-.162-9.532c-.16-.043.175-.111.256-.267.036.095-.292.172-.256.267zm.377 3.392-.042.037c-.015-.179-.03-.34-.04-.499-.002-.02.152-.044.163-.061l.186-.307c.071.068.05.155.022.242-.009.025-.043.055-.036.067.102.204-.26.34-.251.522l-.002-.001zm.111 5.401c-.006-.05.06-.13.113-.16.052-.028.114.133.092.27-.095.01-.19-.01-.203-.11h-.002zm.436 7.158-.133-.268-.098.118c.011-.05.015-.105.033-.153.034-.097 0-.206-.05-.229-.012-.09-.02-.151-.03-.211-.005-.021-.024-.043-.021-.062.024-.153.053-.305.08-.457l-.031.002c-.007-.072-.023-.145-.017-.215.003-.03.06-.054.091-.08.017.041.044.081.047.122.005.1-.018.2 0 .297.031.176.085.347.129.522.018.071.031.142.048.215.018.084.047.166.048.25.001.05-.04.1-.06.15h-.037v-.001zm.156.677c-.09-.114-.127-.375-.038-.458l.088.448-.05.01zm1.227 2.154c-.024-.052-.047-.08-.041-.099.012-.035.042-.064.064-.096.018.02.055.047.052.063-.01.037-.038.07-.075.132zm1.048.356c-.007-.058.016-.12.027-.18l.047.006.034.3c-.053-.06-.106-.09-.11-.126h.002zm.736-5.26-.043-.002c-.048-.126-.09-.255-.02-.386.01-.022.057-.025.089-.036l-.026.424zm.997 3.104c-.036-.114-.074-.209-.092-.308-.017-.092-.013-.188-.018-.283l-.03.005-.046.208-.053-.004-.039-.156c-.132-.022-.104-.157-.122-.256-.025-.137.082-.174.195-.221.02.099.036.187.052.276.147.044.272.556.153.736v.003zm-.293-2.002c.029-.02.076-.014.124-.021.055.283.178.552.115.83-.088-.011-.156-.011-.217-.035-.032-.012-.055-.06-.071-.097-.047-.103-.003-.231-.113-.324-.066-.057.004-.2.096-.259.03-.019.036-.075.065-.094h.001zm.217-13.748.015-.334c.102.103.1.222-.015.334zM38.872 32.87c-.007-.174-.039-.346-.058-.517a4.174 4.174 0 0 1-.02-.261c-.005-.113 0-.227-.008-.34-.01-.247-.031-.494-.035-.742-.003-.134.026-.267.024-.4 0-.174-.017-.349-.03-.523-.002-.043-.024-.087-.023-.128.005-.162.027-.325.022-.486-.011-.325-.033-.65-.058-.975-.008-.109-.052-.213-.057-.321-.011-.215-.003-.43-.009-.645-.004-.15-.018-.303-.027-.454-.007-.099-.026-.196-.02-.294.007-.144.043-.288.049-.432.013-.38.01-.761.05-1.143.036-.352.009-.713-.024-1.066-.02-.23-.11-.448-.033-.69.034-.108-.017-.242-.025-.366-.005-.075.011-.154-.004-.226a5.802 5.802 0 0 1-.09-1.184c0-.026.003-.055-.004-.08a1.702 1.702 0 0 1-.028-.711.65.65 0 0 0 0-.213c-.057-.31-.16-.611-.157-.932 0-.095.146-.823.146-1.092 0-.087-.044-.337-.06-.423-.045-.264.067-2.066-.07-2.316-.124-.228-.416.823-.45.59-.012-.081-.045-.068-.066-.148-.057-.222-.02-.16-.272-.295-.015-.008-.022-.035-.03-.055-.06-.142-.147-.156-.284-.12-.115.031-.27.04-.368-.013-.17-.09-.263-.126-.39-.012-.052.046-.1.097-.144.152-.161.206-.16.206-.294-.004a.753.753 0 0 0-.096-.122c-.03-.029-.08-.077-.1-.067-.038.017-.07.063-.09.104-.029.055-.045.117-.08.209l-.129-.31c-.118.005-.199.005-.28.014-.08.01-.16.036-.23-.033-.009-.008-.049.01-.07.021-.065.034-.124.078-.19.107-.184.077-.2.098-.202.297 0 .062-.01.123-.016.185l-.046.006c-.044-.122-.108-.243-.123-.37-.015-.118-.073-.175-.17-.184-.105-.01-.203.032-.215.164-.007.08-.008.159-.023.237-.043.22-.047.434.035.65.039.1.043.213.058.321.02.144.039.29.054.434.004.037-.006.077-.011.116-.007.049-.02.098-.02.148 0 .117.007.233.007.35 0 .37.015.721-.03 1.088a.178.178 0 0 1-.022.08c-.037.056-.129.047-.177 0-.048-.047-.065-.117-.076-.185-.07-.42.079-.736.033-1.145-.016-.144-.02-.288-.033-.434-.005-.064-.019-.13-.024-.194-.006-.07-.017-.14-.008-.208.008-.069.049-.134.052-.202.01-.198-.018-.401.02-.594.036-.182 0-.343-.045-.508-.029-.103-.19-.19-.265-.145-.128.078-.249.167-.287.33-.033.137-.081.269-.111.406-.032.145-.066.292-.069.44-.003.16.04.32.048.48.01.205-.005.41.007.615.023.342.065.684.09 1.026.012.17.003.342 0 .514-.005.342-.009.68-.057 1.023a7.43 7.43 0 0 0-.054.524c-.016.221-.027.444-.044.665-.01.125-.004.251-.016.376-.018.193-.055.383-.06.574-.006.175.028.35.026.525-.006.275-.028.55-.044.824-.02.345-.044.69-.06 1.035-.024.496-.045.993-.061 1.49-.004.14.016.28.018.422 0 .291-.015.584-.003.873.012.308.047.616.075.923.014.145.038.287.055.431.018.148.046.294.053.443.012.283.01.566.016.848l.007.296c.005.235.005.47.02.703.006.103.053.203.061.306.012.157-.003.315.008.471.028.41.068.819.09 1.228.008.158-.024.317-.027.476-.004.366-.004.73 0 1.095.003.198.03.394.028.592-.004.449-.022.898-.025 1.347-.001.222.02.446.026.669.013.479.02.96.033 1.439 0 .042.02.085.032.126.058.217.132.431.059.66-.036.113-.078.225-.095.34-.015.11.007.224 0 .337-.014.211-.048.422-.055.634-.01.297-.005.593 0 .89.002.137.058.279-.03.41-.007.009-.003.025-.001.039.01.218.019.437.031.655.004.07.011.14.02.21.016.126.04.253.054.38.014.12.054.252.02.36-.062.2-.073.393-.042.599.026.16.035.327.035.489 0 .243-.036.487-.02.73.014.245.07.487.112.756a5.34 5.34 0 0 0 .082-.066l.099.292c.047-.08.064-.15.108-.175.054-.03.128-.018.195-.024.051.22.017.27-.232.31l.1.247c.014.031.035.089.046.087.053-.007.144-.02.151-.048.03-.138.147-.28.027-.4.028-.087.047-.156.073-.223.03-.08.073-.144.193-.085-.05.046-.093.086-.135.127.158.116.104.274.088.445l.177-.1c.145.173-.034.426.174.602.016-.073.039-.128.033-.179-.008-.074-.042-.145-.055-.22-.007-.04.003-.114.021-.12a.754.754 0 0 1 .273-.038c.022.002.033.123.05.187.013.051.029.102.04.148l.31-.226-.022-.037.092.1.09-.152c-.006.085.007.18-.026.256-.064.149.013.27.051.397.018.055.117.015.147.05.05.055.024.218.04.29.025.107.115.215.222.196.086-.017.137-.103.175-.181l.217-.441.136.398c.034.1.097.222.204.216l.15-.861c.028.241.102.477.22.69.018.032.042.066.078.066.039 0 .062-.04.078-.074l.246-.519c.052.081.06.181.092.272.032.09.111.181.206.167.041-.005.077-.03.118-.04.04-.009.094.003.103.045l.098-.433c.005-.023.012-.05.03-.065.103-.083.23-.031.335-.168.085-.113.088-.255.203-.353l.123.066c.031-.088.068-.175.094-.264.026-.092.037-.188.066-.279.1-.307.086-.629.112-.943.016-.197-.014-.399-.026-.596-.005-.066-.022-.13-.025-.197-.006-.152-.003-.303-.01-.456-.008-.19-.02-.379-.037-.567-.01-.115-.036-.23-.047-.344-.012-.124-.016-.25-.022-.373-.002-.056-.006-.114.002-.169.018-.11.077-.226.059-.33-.044-.26-.04-.518-.015-.778.005-.06.048-.139.023-.178-.085-.143-.016-.286-.023-.428-.003-.052.022-.104.02-.156-.005-.243-.053-.493-.01-.726.04-.227-.083-.46.047-.677.011-.02-.008-.06-.015-.088-.02-.084-.063-.168-.062-.252.005-.225.028-.449.043-.674a.067.067 0 0 0-.023-.045c-.079-.058-.047-.114-.013-.183a.45.45 0 0 0 .042-.163c.013-.204.021-.405.034-.609.004-.078.018-.155.02-.233.005-.14.003-.28.005-.42 0-.108.033-.226-.003-.318-.077-.202-.033-.39.014-.58a.577.577 0 0 0-.026-.402.214.214 0 0 1-.011-.145c.045-.125.067-.245.01-.372-.017-.037-.01-.088-.006-.132.01-.205.026-.41.029-.615 0-.142-.03-.283-.025-.423.007-.186.047-.368.053-.554a9.8 9.8 0 0 0 0-.751l-.002.004zm-4.88-.06c.02.015.039.032.06.047l-.065.148-.105-.09.11-.105zm.053 1.198a2.118 2.118 0 0 1-.05.29.332.332 0 0 1-.056.113c-.006.007-.053 0-.055-.008-.015-.038-.022-.08-.03-.122-.002-.007.01-.018.01-.025-.075-.188.134-.334.078-.525-.016-.052.032-.123.053-.186l.074.012c-.007.15-.01.3-.023.45h-.002zm.267-16.708c.08.093.09.232.02.356-.1-.136-.105-.282-.02-.356zm-.018 3.525v-.483c.12.162.113.386 0 .483zm.025-1.91c-.015-.078-.037-.143-.037-.207 0-.122-.042-.227-.077-.34-.045-.15-.115-.326.025-.483.045-.05.064-.126.096-.19l.05.008c.012.172.023.347.04.52.01.113.02.227.046.336.047.194.022.28-.143.356zm1.33 28.083-.042-.021c-.027-.095.041-.148.105-.205l.048.02-.109.206h-.001zm1.463 1.082c-.123-.14-.031-.272-.05-.392a.252.252 0 0 1 .008-.115c.008-.029.033-.054.05-.08.024.017.062.032.067.052a.848.848 0 0 1-.073.536l-.002-.001zm.536-.528c-.096-.083-.085-.321.036-.534.016.205.107.375-.036.534zm.603-3.121-.065.026c-.02-.162-.05-.32-.057-.486-.033-.66-.047-1.325-.09-1.98-.042-.658-.033-.772.264-1.293.087 1.321.01 2.526-.05 3.731l-.002.002zm-4.32-3.21c.035.06.12.134.093.18-.114.195.02.385.003.576-.025.27-.025.54-.112.81-.07.218.005.453-.005.681-.008.213-.055.424-.058.637 0 .094.054.19.106.28.055.095.014.15-.147.207-.025-.275-.05-.53-.071-.783-.02-.24-.046-.477-.043-.716.001-.141.062-.283.08-.424.015-.118.006-.238.008-.357.004-.302.003-.604.012-.905.002-.06.04-.117.06-.176l.072-.007.003-.002zm.102 3.91c-.015.065-.04.128-.044.193-.006.14.007.281-.008.421-.004.045-.07.088-.137.124-.169-.274.081-.499.088-.747l.101.01zM27.518 48.787c-.012-.006-.066.036-.072.062-.024.122.07.12.143.129.1-.12.004-.155-.071-.191z" fill="#fff"/>
        <path d="m46.448 10.95 9.802-13.2C49.74 2.694 43.5 7.128 37.542 11.043l6.898-2.221L-.479 62.25l33.478-25.222-9.013 3.749 18.999-25.082 1.156 3.222 3.642-3.127-4.732 13.48 9.676-6.75 2.718-17.474-8.499 7.427-.498-1.521v-.001z" fill="#D32930"/>
    </g>
    <defs>
        <clipPath id="dezia6g5ea">
            <path fill="#fff" d="M0 0h60v60H0z"/>
        </clipPath>
    </defs>
</svg>
