<svg width="60" height="60" viewBox="0 0 60 60" fill="none" xmlns="http://www.w3.org/2000/svg">
    <path fill-rule="evenodd" clip-rule="evenodd" d="M29.985 0c16.438-.06 29.948 13.379 30.014 29.85.065 16.512-13.44 30.142-29.869 30.149C13.507 60.006.055 46.608 0 29.994-.058 13.514 13.396.058 29.984 0zm-.01 55.629c14.229.002 25.667-11.473 25.658-25.742-.01-14.066-11.523-25.57-25.608-25.581-14.133-.014-25.639 11.49-25.66 25.651-.02 14.169 11.453 25.667 25.61 25.672zM19.383 44.772V32.458h7.112v6.398c.66 0 1.312.015 1.956.03 1.425.031 2.813.062 4.185-.067 2.72-.255 3.852-2.316 2.879-4.904-.117-.31-.269-.606-.445-.951-.09-.174-.184-.36-.285-.567.536 0 1.066-.002 1.591-.005 1.561-.008 3.084-.016 4.604.048.316.014.704.548.898.922 2.395 4.675-.393 10.13-5.699 11.188a25.38 25.38 0 0 0-.259.053c-.373.079-.75.158-1.125.16-4.075.011-8.15.01-12.284.01h-3.128zm11.541-23.688c3.915.107 4.862 1.592 3.26 5.295v.002c.542 0 1.08-.004 1.613-.007 1.308-.01 2.595-.018 3.88.028.82.03 1.168-.307 1.441-1.016 1.827-4.75-1.085-9.761-6.146-10.042-3.574-.2-7.162-.185-10.749-.17-1.512.007-3.025.013-4.536.003-.068 0-.135.047-.196.09a.788.788 0 0 1-.077.05V26.38h7.114v-5.302c.483 0 .956-.004 1.423-.007 1.013-.007 1.994-.014 2.973.014z" fill="#fff"/>
</svg>
