<?xml version="1.0" encoding="UTF-8"?>
<svg xmlns="http://www.w3.org/2000/svg" version="1.1" viewBox="0 0 200 200">
  <defs>
    <style>
      .cls-1, .cls-2 {
        fill: #fff;
      }

      .cls-2 {
        stroke: #000;
        stroke-width: 4.7px;
      }
    </style>
  </defs>
  <!-- Generator: Adobe Illustrator 28.7.1, SVG Export Plug-In . SVG Version: 1.2.0 Build 142)  -->
  <g>
    <g id="Layer_1">
      <path class="cls-1" d="M.5,100c0,55.2,44.8,100,100,100s100-44.8,100-100S155.7,0,100.5,0,.5,44.8.5,100Z"/>
      <path d="M160.3,54.6c-1.3-9.4-6.7-17.9-14.3-22.6-7.4-4.7-18.7-3.6-26.9-2.8-4.1.4-8.4,1.3-12.7,2.5-6.7.1-14.1,2.8-20.2,4.7-4.9,1.5-13.2,3.7-17.3,6.7-2.8,2-4.6,4.5-5.7,7.2-5.7,9.8-5.6,18.3-6.3,30.9-.2,4.4-7.2,22.5,1.8,25.6.9.3,1.9.6,3,.8,1.1,2.6,2.4,5.1,4.1,7.5.2.2.4.5.5.7.9,2.4.1,0,.9,2.4,3.7,10.4-6.9,13.4,10.5,14.5,4.9.3,9.5.2,13.7-.3,11-.4,21.9-2.7,27,5.8,2.1,12.7-8.2,15.7-20.9,17.7-7.9.9-17.5,1.4-29,1.4H18.5l7.3,9.5h42.8c66.5,0,75-16.4,81.2-43.4v-.5c.1,0,.1-.7.1-.7,5.1-8.1,17.6-14.9,18-25.5-4,3.9-7.4-41-7.6-42Z"/>
      <path d="M143.2,139.5c.1-.7.1-1.4,0-2.2,0,.7,0,1.4,0,2.2Z"/>
      <path class="cls-1" d="M56,82.8c6.7-1.4,13.9-3.4,19.3-8,2.5-2,6.9-7.3,10.5-6.8,6.5,1,2.6,8.6-1.4,10.1-2.8,1-6,.2-8.8.8-2.8.6-5.4,2-8,3-3.3,1.3-8.1,3.8-11.6,1.9"/>
      <path class="cls-1" d="M95.9,26.9c-4.5,1-7.7,3.6-10,8.6v.8c13.5-.7,36.7,5.4,43.8,20.5l8.9-4.2c-7.7-16.4-27.3-23.8-42.7-25.7Z"/>
      <path class="cls-2" d="M174,77c0,15.6-11.7,28.2-26.2,28.2s-26.2-12.6-26.2-28.2,11.7-28.2,26.2-28.2,26.2,12.6,26.2,28.2Z"/>
      <path d="M162.7,77.5c0,5.2-3.9,9.3-8.7,9.3s-8.7-4.2-8.7-9.3,3.9-9.3,8.7-9.3,8.7,4.2,8.7,9.3Z"/>
    </g>
  </g>
</svg>