<?xml version="1.0" encoding="utf-8"?>
<!-- Generator: Adobe Illustrator 27.2.0, SVG Export Plug-In . SVG Version: 6.00 Build 0)  -->
<svg version="1.1" id="Art_copy" xmlns="http://www.w3.org/2000/svg" xmlns:xlink="http://www.w3.org/1999/xlink" x="0px" y="0px"
	 viewBox="0 0 494.2 170.4" style="enable-background:new 0 0 494.2 170.4;" xml:space="preserve">
<style type="text/css">
	.st0{fill:#FFFFFF;}
</style>
<path class="st0" d="M351.3,52.3c-5.7-0.1-10.2-3.1-10.8-7.8c-0.6-4.8,3.8-7.7,9.4-7.7c2.8,0,6.4,0.6,8.7,1.5l-2-12.6
	c-2.4-0.6-5.9-1.1-9.3-1.1c-13.7,0-24,7.1-22.7,19.9c1.4,12.9,12.6,21,28.5,21.1c3.4,0,6.6-0.5,9.4-1.5l-2.2-13.8
	C358.6,51.5,355,52.3,351.3,52.3z"/>
<polygon class="st0" points="147.2,25.6 141.6,64.5 170.7,64.5 171.8,54.1 157.6,54.1 158.2,49.3 172.3,49.3 173.3,39.4 159.4,39.4 
	159.9,35.2 173.7,35.2 174.7,25.6 "/>
<polygon class="st0" points="304.9,25.6 319.9,25.6 324,64.5 308.1,64.5 "/>
<path class="st0" d="M119.9,34.9L145,0c-16.6,13.1-32.6,24.8-47.8,35.1l17.6-5.9L0,170.4l85.6-66.6l-23,9.9l48.6-66.3l2.9,8.5
	l9.3-8.3l-12.1,35.6L136,65.4l6.9-46.2l-21.7,19.6L119.9,34.9z"/>
<polygon class="st0" points="259.7,25.6 245.8,25.6 245.8,64.5 273.9,64.5 273.5,54.2 260.2,54.2 "/>
<path class="st0" d="M218.5,25.5l-0.4,0.9L202,64.5h14.5l2-5.7h8.7l1.2,5.7h14.8l-10.6-39C232.5,25.5,218.5,25.5,218.5,25.5z
	 M221.8,49.3l2.3-6.7l1.4,6.7H221.8z"/>
<polygon class="st0" points="212.8,25.6 178.3,25.6 177.4,35.2 185.3,35.2 182.8,64.5 197.4,64.5 199.4,35.2 208.6,35.2 "/>
<polygon class="st0" points="289.1,25.6 275.3,25.6 276.8,64.5 305,64.5 304.1,54.2 290.9,54.2 "/>
<path class="st0" d="M378.1,26.3l19,5.5C377.3,20.1,360.8,9.5,347.6,0L360,17.6l7.8,47.9l21.9,19l-9.2-28.2l16.8,10.2l34.3,47
	l-23-9.9l85.6,66.6L378.1,26.3z M376.5,43.8l-3.3-10.1l9.9,13.5L376.5,43.8z"/>
</svg>
